name rise30.3154peak39.0474fall46.5389.mot
datacolumns 19
datarows 27
range 16.49493800000000 16.53827400000000
endheader
time	ground_force1_vx	ground_force1_vy	ground_force1_vz	ground_force1_px	ground_force1_py	ground_force1_pz	ground_force2_vx	ground_force2_vy	ground_force2_vz	ground_force2_px	ground_force2_py	ground_force2_pz	ground_torque1_x	ground_torque1_y	ground_torque1_z	ground_torque2_x	ground_torque2_y	ground_torque2_z	
16.49493800000000	-4.42678800000000	714.88648000000001	42.51944900000000	0.25587800000000	0.00000000000000	0.13987600000000	0.00000000000000	0.00000000000000	0.00000000000000	0.00000000000000	0.00000000000000	0.00000000000000	0.00000000000000	21.50989900000000	0.00000000000000	0.00000000000000	0.00000000000000	0.00000000000000	
16.49660900000000	-4.94399100000000	715.63302399999998	42.56611400000000	0.25468600000000	0.00000000000000	0.13996000000000	0.00000000000000	0.00000000000000	0.00000000000000	0.00000000000000	0.00000000000000	0.00000000000000	0.00000000000000	21.59659900000000	0.00000000000000	0.00000000000000	0.00000000000000	0.00000000000000	
16.49827400000000	-5.47166200000000	716.39691900000003	42.61704900000000	0.25347400000000	0.00000000000000	0.14004600000000	0.00000000000000	0.00000000000000	0.00000000000000	0.00000000000000	0.00000000000000	0.00000000000000	0.00000000000000	21.68751200000000	0.00000000000000	0.00000000000000	0.00000000000000	0.00000000000000	
16.49993800000000	-6.00991400000000	717.17786000000001	42.67223500000000	0.25224100000000	0.00000000000000	0.14013300000000	0.00000000000000	0.00000000000000	0.00000000000000	0.00000000000000	0.00000000000000	0.00000000000000	0.00000000000000	21.78261700000000	0.00000000000000	0.00000000000000	0.00000000000000	0.00000000000000	
16.50161100000000	-6.55882700000000	717.97560199999998	42.73166300000000	0.25098800000000	0.00000000000000	0.14022100000000	0.00000000000000	0.00000000000000	0.00000000000000	0.00000000000000	0.00000000000000	0.00000000000000	0.00000000000000	21.88188900000000	0.00000000000000	0.00000000000000	0.00000000000000	0.00000000000000	
16.50327700000000	-7.11844700000000	718.78996099999995	42.79532300000000	0.24971600000000	0.00000000000000	0.14031000000000	0.00000000000000	0.00000000000000	0.00000000000000	0.00000000000000	0.00000000000000	0.00000000000000	0.00000000000000	21.98530400000000	0.00000000000000	0.00000000000000	0.00000000000000	0.00000000000000	
16.50493900000000	-7.68878900000000	719.62080800000001	42.86321200000000	0.24842500000000	0.00000000000000	0.14040000000000	0.00000000000000	0.00000000000000	0.00000000000000	0.00000000000000	0.00000000000000	0.00000000000000	0.00000000000000	22.09283400000000	0.00000000000000	0.00000000000000	0.00000000000000	0.00000000000000	
16.50660400000000	-8.26983200000000	720.46806800000002	42.93532700000000	0.24711700000000	0.00000000000000	0.14049100000000	0.00000000000000	0.00000000000000	0.00000000000000	0.00000000000000	0.00000000000000	0.00000000000000	0.00000000000000	22.20444900000000	0.00000000000000	0.00000000000000	0.00000000000000	0.00000000000000	
16.50827600000000	-8.86152400000000	721.33171900000002	43.01167000000000	0.24579100000000	0.00000000000000	0.14058300000000	0.00000000000000	0.00000000000000	0.00000000000000	0.00000000000000	0.00000000000000	0.00000000000000	0.00000000000000	22.32011500000000	0.00000000000000	0.00000000000000	0.00000000000000	0.00000000000000	
16.50994300000000	-9.46377700000000	722.21178699999996	43.09224000000000	0.24444900000000	0.00000000000000	0.14067600000000	0.00000000000000	0.00000000000000	0.00000000000000	0.00000000000000	0.00000000000000	0.00000000000000	0.00000000000000	22.43979600000000	0.00000000000000	0.00000000000000	0.00000000000000	0.00000000000000	
16.51161100000000	-10.07647400000000	723.10834299999999	43.17703900000000	0.24309200000000	0.00000000000000	0.14077000000000	0.00000000000000	0.00000000000000	0.00000000000000	0.00000000000000	0.00000000000000	0.00000000000000	0.00000000000000	22.56345300000000	0.00000000000000	0.00000000000000	0.00000000000000	0.00000000000000	
16.51327800000000	-10.69946400000000	724.02149799999995	43.26606900000000	0.24172000000000	0.00000000000000	0.14086400000000	0.00000000000000	0.00000000000000	0.00000000000000	0.00000000000000	0.00000000000000	0.00000000000000	0.00000000000000	22.69104200000000	0.00000000000000	0.00000000000000	0.00000000000000	0.00000000000000	
16.51494100000000	-11.33256400000000	724.95140100000003	43.35933100000000	0.24033600000000	0.00000000000000	0.14095900000000	0.00000000000000	0.00000000000000	0.00000000000000	0.00000000000000	0.00000000000000	0.00000000000000	0.00000000000000	22.82251400000000	0.00000000000000	0.00000000000000	0.00000000000000	0.00000000000000	
16.51660300000000	-11.97556200000000	725.89823600000000	43.45682100000000	0.23893900000000	0.00000000000000	0.14105500000000	0.00000000000000	0.00000000000000	0.00000000000000	0.00000000000000	0.00000000000000	0.00000000000000	0.00000000000000	22.95781800000000	0.00000000000000	0.00000000000000	0.00000000000000	0.00000000000000	
16.51827000000000	-12.62821200000000	726.86221200000000	43.55853700000000	0.23753300000000	0.00000000000000	0.14115100000000	0.00000000000000	0.00000000000000	0.00000000000000	0.00000000000000	0.00000000000000	0.00000000000000	0.00000000000000	23.09689600000000	0.00000000000000	0.00000000000000	0.00000000000000	0.00000000000000	
16.51994000000000	-13.29024300000000	727.84356600000001	43.66447100000000	0.23611700000000	0.00000000000000	0.14124700000000	0.00000000000000	0.00000000000000	0.00000000000000	0.00000000000000	0.00000000000000	0.00000000000000	0.00000000000000	23.23968600000000	0.00000000000000	0.00000000000000	0.00000000000000	0.00000000000000	
16.52161200000000	-13.96135100000000	728.84255299999995	43.77461200000000	0.23469300000000	0.00000000000000	0.14134400000000	0.00000000000000	0.00000000000000	0.00000000000000	0.00000000000000	0.00000000000000	0.00000000000000	0.00000000000000	23.38612100000000	0.00000000000000	0.00000000000000	0.00000000000000	0.00000000000000	
16.52327200000000	-14.64120800000000	729.85944199999994	43.88894500000000	0.23326300000000	0.00000000000000	0.14144000000000	0.00000000000000	0.00000000000000	0.00000000000000	0.00000000000000	0.00000000000000	0.00000000000000	0.00000000000000	23.53612800000000	0.00000000000000	0.00000000000000	0.00000000000000	0.00000000000000	
16.52494000000000	-15.32945600000000	730.89451499999996	44.00744900000000	0.23182900000000	0.00000000000000	0.14153700000000	0.00000000000000	0.00000000000000	0.00000000000000	0.00000000000000	0.00000000000000	0.00000000000000	0.00000000000000	23.68962800000000	0.00000000000000	0.00000000000000	0.00000000000000	0.00000000000000	
16.52660900000000	-16.02571200000000	731.94805599999995	44.13010000000000	0.23039100000000	0.00000000000000	0.14163400000000	0.00000000000000	0.00000000000000	0.00000000000000	0.00000000000000	0.00000000000000	0.00000000000000	0.00000000000000	23.84653700000000	0.00000000000000	0.00000000000000	0.00000000000000	0.00000000000000	
16.52827400000000	-16.72956900000000	733.02035300000000	44.25686600000000	0.22895200000000	0.00000000000000	0.14173000000000	0.00000000000000	0.00000000000000	0.00000000000000	0.00000000000000	0.00000000000000	0.00000000000000	0.00000000000000	24.00676400000000	0.00000000000000	0.00000000000000	0.00000000000000	0.00000000000000	
16.52994500000000	-17.44059600000000	734.11168799999996	44.38771000000000	0.22751300000000	0.00000000000000	0.14182600000000	0.00000000000000	0.00000000000000	0.00000000000000	0.00000000000000	0.00000000000000	0.00000000000000	0.00000000000000	24.17021200000000	0.00000000000000	0.00000000000000	0.00000000000000	0.00000000000000	
16.53160500000000	-18.15834100000000	735.22233500000004	44.52258800000000	0.22607600000000	0.00000000000000	0.14192200000000	0.00000000000000	0.00000000000000	0.00000000000000	0.00000000000000	0.00000000000000	0.00000000000000	0.00000000000000	24.33677700000000	0.00000000000000	0.00000000000000	0.00000000000000	0.00000000000000	
16.53327600000000	-18.88232900000000	736.35255299999994	44.66145000000000	0.22464300000000	0.00000000000000	0.14201700000000	0.00000000000000	0.00000000000000	0.00000000000000	0.00000000000000	0.00000000000000	0.00000000000000	0.00000000000000	24.50634900000000	0.00000000000000	0.00000000000000	0.00000000000000	0.00000000000000	
16.53493900000000	-19.61206700000000	737.50258399999996	44.80423800000000	0.22321500000000	0.00000000000000	0.14211100000000	0.00000000000000	0.00000000000000	0.00000000000000	0.00000000000000	0.00000000000000	0.00000000000000	0.00000000000000	24.67881000000000	0.00000000000000	0.00000000000000	0.00000000000000	0.00000000000000	
16.53660900000000	-20.34704400000000	738.67264699999998	44.95088800000000	0.22179400000000	0.00000000000000	0.14220500000000	0.00000000000000	0.00000000000000	0.00000000000000	0.00000000000000	0.00000000000000	0.00000000000000	0.00000000000000	24.85403800000000	0.00000000000000	0.00000000000000	0.00000000000000	0.00000000000000	
16.53827400000000	-21.08673200000000	739.86293499999999	45.10132800000000	0.22038200000000	0.00000000000000	0.14229700000000	0.00000000000000	0.00000000000000	0.00000000000000	0.00000000000000	0.00000000000000	0.00000000000000	0.00000000000000	25.03190200000000	0.00000000000000	0.00000000000000	0.00000000000000	0.00000000000000	
